<svg xmlns="http://www.w3.org/2000/svg" width="453.618" height="517.214" viewBox="0 0 453.618 517.214" fill="none">
  <path d="M 264.991 517.193 L 262.003 517.193 C 261.608 517.079 261.224 516.892 260.82 516.851 C 259.512 516.726 258.163 516.778 256.887 516.529 C 250.236 515.233 243.886 513.023 237.816 510.035 C 235.461 508.874 233.292 507.401 231.829 505.15 C 229.245 501.156 227.865 496.768 227.761 491.996 C 227.751 491.384 227.699 490.762 227.595 490.16 C 227.346 488.77 226.195 488.936 225.261 489.008 C 224.358 489.071 223.476 489.288 223.549 490.616 C 223.704 493.386 223.372 496.114 222.573 498.791 C 221.629 501.913 220.488 505.004 217.925 507.1 C 215.881 508.78 213.536 510.201 211.118 511.291 C 205.339 513.915 199.424 516.208 192.981 516.664 C 192.338 516.706 191.705 517.006 191.072 517.183 L 188.083 517.183 C 187.98 517.079 187.886 516.892 187.762 516.872 C 186.102 516.591 184.389 516.508 182.781 516.042 C 179.917 515.222 177.199 514.05 174.823 512.152 C 173.712 511.27 172.478 510.45 171.181 509.921 C 168.939 508.998 166.574 508.376 164.301 507.525 C 162.952 507.027 161.645 506.923 160.317 507.432 C 157.816 508.407 155.233 508.842 152.556 508.594 C 151.497 508.5 150.418 508.386 149.401 508.085 C 146.33 507.172 143.445 506.031 141.609 503.064 C 140.727 501.633 139.918 500.212 139.409 498.625 C 138.631 496.218 137.842 493.801 137.147 491.374 C 136.774 490.087 136.431 489.849 135.041 489.901 C 134.211 489.932 133.37 489.641 132.53 489.506 C 131.98 489.413 131.388 489.185 130.87 489.299 C 127.995 489.901 125.111 489.973 122.258 489.413 C 118.366 488.645 115.357 486.436 113.033 483.251 C 112.037 481.882 111.082 480.481 109.993 479.205 C 109.557 478.687 108.81 478.189 108.177 478.147 C 107.316 478.085 106.403 478.407 105.531 478.645 C 101.941 479.652 98.434 479.413 95.01 477.981 C 92.509 476.944 90.154 475.637 88.328 473.604 C 86.481 471.55 84.686 469.434 83.918 466.664 C 83.513 465.222 82.922 463.822 82.673 462.349 C 82.299 460.129 82.164 457.867 81.884 455.627 C 81.801 455.004 81.749 454.226 81.355 453.822 C 79.176 451.529 77.91 448.666 76.603 445.896 C 75.202 442.929 74.31 439.724 73.148 436.633 C 72.67 435.367 72.048 434.34 70.471 433.905 C 68.001 433.23 65.604 432.193 63.788 430.284 C 62.232 428.656 60.592 427.027 59.358 425.17 C 57.106 421.778 55.01 418.272 53.049 414.703 C 51.41 411.705 50.019 408.572 48.577 405.471 C 47.654 403.5 46.751 401.519 45.973 399.485 C 44.925 396.747 43.451 394.278 41.449 392.151 C 39.467 390.056 37.381 388.064 36.8 385.045 C 36.738 384.724 36.302 384.413 35.96 384.226 C 33.034 382.639 30.865 380.294 29.309 377.411 C 27.576 374.216 26.953 370.751 27.119 367.12 C 27.15 366.352 27.15 365.502 26.86 364.817 C 25.542 361.674 24.058 358.603 22.751 355.45 C 21.226 351.798 20.468 347.991 20.665 343.998 C 20.717 343.022 20.582 342.027 20.396 341.062 C 20.043 339.205 19.669 337.348 19.161 335.522 C 18.559 333.344 18.227 330.927 17.023 329.122 C 14.585 325.45 12.977 321.456 11.763 317.307 C 10.746 313.852 10.102 310.273 9.459 306.726 C 8.536 301.591 7.716 296.435 6.959 291.28 C 6.45 287.773 6.014 284.257 5.765 280.73 C 5.464 276.487 5.423 272.224 5.215 267.97 C 5.112 265.761 5.029 263.541 4.686 261.362 C 4.396 259.506 3.617 257.732 3.265 255.875 C 2.715 252.918 2.32 249.941 1.895 246.964 C 1.335 243.012 0.639 239.07 0.307 235.107 C -0.004 231.466 -0.076 227.784 0.079 224.132 C 0.162 222.171 0.816 220.18 1.48 218.292 C 2.528 215.315 4.406 212.867 6.824 210.833 C 7.042 210.647 7.218 210.263 7.208 209.972 C 7.114 207.369 6.969 204.765 6.865 202.161 C 6.761 199.433 6.668 196.705 6.626 193.966 C 6.606 192.555 6.751 191.155 5.392 190.19 C 5.205 190.055 5.06 189.817 4.966 189.599 C 4.167 187.794 3.285 186.02 2.632 184.163 C 1.013 179.588 0.11 174.837 0.307 169.993 C 0.422 167.213 1.096 164.453 1.47 161.684 C 1.905 158.437 2.974 155.429 4.8 152.721 C 7.394 148.873 10.787 145.792 14.523 143.084 C 15.384 142.462 16.017 141.808 16.245 140.563 C 17.127 135.771 18.735 131.31 23.041 128.385 C 23.467 128.094 23.737 127.555 24.162 127.254 C 24.805 126.798 25.49 126.227 26.227 126.124 C 27.109 125.999 27.514 125.594 27.918 124.92 C 28.862 123.333 29.817 121.756 30.844 120.221 C 32.401 117.897 34.092 115.646 35.597 113.292 C 37.973 109.578 40.401 105.874 42.517 102.016 C 44.063 99.204 46.118 96.538 46.294 93.115 C 46.305 92.835 46.429 92.545 46.574 92.306 C 47.851 90.096 49.044 87.825 50.465 85.708 C 51.264 84.526 51.42 83.343 51.192 82.078 C 50.445 77.97 49.843 73.862 49.998 69.671 C 50.113 66.632 51.057 63.779 52.468 61.196 C 53.661 59.017 55.456 57.181 57.023 55.221 C 57.469 54.661 58.019 54.152 58.58 53.696 C 59.171 53.219 59.866 52.845 60.478 52.389 C 62.242 51.071 63.27 48.914 65.563 48.156 C 66.631 47.804 67.576 47.036 68.53 46.383 C 68.821 46.186 69.122 45.781 69.142 45.449 C 69.257 44.049 69.91 42.97 70.937 42.057 C 72.577 40.605 74.154 39.059 75.866 37.7 C 81.666 33.105 87.446 28.488 93.371 24.059 C 96.276 21.891 99.544 20.241 103.124 19.329 C 103.705 19.183 104.369 18.81 104.691 18.333 C 107.129 14.754 109.858 11.486 113.178 8.675 C 116.8 5.615 121.002 3.779 125.443 2.42 C 128.525 1.476 131.762 1.393 134.916 1.735 C 137.583 2.026 140.208 2.814 142.802 3.561 C 146.226 4.546 149.277 6.621 152.94 6.974 C 153.604 7.036 153.884 6.932 154.382 6.497 C 156.239 4.878 158.045 3.063 160.182 1.932 C 163.803 0.013 167.777 -0.423 171.855 0.387 C 175.736 1.154 179.15 2.669 181.36 6.175 C 181.515 6.424 181.878 6.6 182.179 6.694 C 184.618 7.43 187.015 8.54 189.505 8.789 C 195.015 9.339 199.404 12.389 204.031 14.847 C 205.37 15.563 206.273 17.337 207.051 18.8 C 208.14 20.843 210.039 21.611 211.969 22.233 C 213.318 22.669 214.874 22.441 216.254 22.814 C 219.627 23.727 222.988 24.681 226.081 26.445 C 226.714 26.808 227.772 26.715 228.529 26.476 C 229.733 26.102 230.822 25.345 232.005 24.889 C 234.61 23.893 237.245 22.99 239.86 22.026 C 241.614 21.383 243.367 20.708 245.11 20.024 C 245.349 19.93 245.556 19.661 245.712 19.432 C 246.729 17.939 247.621 16.341 248.763 14.951 C 249.437 14.121 250.454 13.115 251.388 13.042 C 253.245 12.897 254.812 12.109 256.482 11.528 C 258.807 10.708 261.141 9.909 263.466 9.09 C 265.292 8.447 267.087 8.032 268.55 6.372 C 270.117 4.588 272.223 3.198 274.277 1.922 C 276.747 0.459 279.59 -0.018 282.402 0.003 C 285.899 0.024 289.344 0.511 292.01 3.208 C 292.311 3.519 292.768 3.727 293.193 3.851 C 295.714 4.609 298.236 5.335 300.768 6.03 C 301.131 6.134 301.618 6.144 301.95 5.988 C 303.663 5.158 305.458 4.899 307.346 4.889 C 308.404 4.889 309.484 4.681 310.5 4.36 C 315.585 2.762 320.596 1.206 326.106 1.849 C 329.779 2.275 333.265 3.125 336.544 4.692 C 343.195 7.876 348.124 12.939 351.88 19.246 C 352.357 20.055 353.322 20.636 354.173 21.144 C 355.221 21.777 356.497 22.067 357.494 22.762 C 362.246 26.123 366.946 29.546 371.626 33.001 C 372.715 33.8 373.556 34.93 374.635 35.729 C 377.488 37.856 380.414 39.868 383.289 41.964 C 385.789 43.789 388.238 45.688 390.749 47.503 C 391.787 48.25 393.001 48.748 394.007 49.536 C 396.798 51.715 398.604 54.557 399.548 57.98 C 399.776 58.81 400.046 59.681 400.554 60.356 C 402.723 63.24 403.076 66.663 403.512 70.044 C 403.916 73.177 402.889 76.175 402.349 79.204 C 401.997 81.186 401.976 82.825 403.325 84.547 C 404.56 86.113 405.317 88.042 406.313 89.796 C 406.801 90.657 407.361 91.476 407.932 92.285 C 409.779 94.92 411.771 97.451 413.462 100.179 C 416.347 104.837 419.096 109.588 421.825 114.339 C 423.797 117.773 425.644 121.258 427.522 124.744 C 428.175 125.958 428.632 127.119 429.929 128.084 C 432.129 129.713 433.893 131.953 434.982 134.578 C 435.491 135.812 435.875 137.109 436.466 138.302 C 436.86 139.101 437.524 139.775 438.074 140.501 C 439.828 142.846 441.322 145.252 443.833 147.109 C 446.635 149.173 448.73 152.202 450.162 155.543 C 451.916 159.63 452.476 163.966 452.767 168.312 C 453.13 173.686 451.916 178.862 450.287 183.976 C 449.561 186.227 448.347 188.229 448.917 191.041 C 449.778 195.283 449.633 199.734 449.82 204.101 C 449.924 206.362 450.059 208.665 449.747 210.885 C 449.509 212.597 450.079 213.81 450.889 215.138 C 451.553 216.227 452.186 217.358 452.601 218.551 C 453.296 220.564 453.887 222.566 452.974 224.775 C 452.476 225.979 452.487 227.41 452.341 228.738 C 452.31 229.018 452.549 229.526 452.756 229.589 C 453.659 229.827 453.638 230.501 453.607 231.155 C 453.545 232.597 453.462 234.049 453.317 235.481 C 452.995 238.634 452.964 241.871 452.206 244.921 C 450.93 250.035 451.169 255.242 450.598 260.387 C 450.245 263.603 450.079 266.85 449.851 270.076 C 449.509 274.848 449.208 279.63 448.824 284.392 C 448.616 286.933 448.378 289.485 447.983 292.006 C 447.527 294.931 446.935 297.836 446.323 300.73 C 445.296 305.688 444.404 310.678 442.577 315.439 C 441.415 318.479 440.295 321.498 438.749 324.392 C 437.649 326.456 437.441 328.966 436.611 331.207 C 435.428 334.413 434.038 337.535 432.782 340.709 C 432.585 341.207 432.565 341.819 432.637 342.359 C 433.073 345.46 433.197 348.562 432.264 351.57 C 431.454 354.164 430.354 356.653 429.379 359.195 C 428.736 360.854 428.424 362.421 428.777 364.309 C 429.524 368.22 429.618 372.182 427.677 375.906 C 425.851 379.423 423.402 382.348 419.958 384.392 C 419.48 384.672 419.044 385.118 418.744 385.585 C 415.652 390.419 412.611 395.284 409.509 400.108 C 407.32 403.5 405.068 406.861 402.827 410.222 C 401.343 412.452 399.589 414.537 398.344 416.882 C 395.709 421.861 392.648 426.477 388.311 430.108 C 386.879 431.311 385.094 432.079 383.496 433.095 C 382.894 433.479 382.199 433.873 381.857 434.444 C 381.016 435.855 380.321 437.348 379.647 438.853 C 377.073 444.548 374.189 450.035 369.675 454.485 C 369.073 455.077 368.243 455.647 368.015 456.373 C 367.621 457.649 367.641 459.05 367.444 460.388 C 367.216 461.975 367.164 463.625 366.645 465.118 C 365.909 467.234 364.944 469.288 363.844 471.249 C 362.236 474.112 359.704 476.125 356.798 477.473 C 353.032 479.226 348.975 479.299 344.887 478.842 C 344.316 478.78 343.507 479.122 343.092 479.558 C 341.701 481.01 340.404 482.577 339.128 484.133 C 335.87 488.106 331.533 489.818 326.542 489.921 C 324.425 489.963 322.288 489.548 320.181 489.268 C 319.081 489.122 318.334 489.33 318.013 490.513 C 317.795 491.342 317.546 492.193 317.162 492.961 C 315.439 496.415 314.028 500.067 311.175 502.815 C 309.857 504.081 308.477 505.326 306.941 506.301 C 305.717 507.079 304.244 507.463 302.864 507.971 C 300.643 508.77 298.308 508.905 296.036 508.5 C 293.639 508.064 291.305 507.255 288.949 506.623 C 288.524 506.508 287.984 506.301 287.631 506.457 C 284.851 507.629 281.935 508.511 279.694 510.73 C 276.28 514.091 272.275 516.291 267.388 516.643 C 266.589 516.706 265.8 517.017 265.001 517.214 L 264.991 517.193 Z" fill="currentColor" fill-rule="nonzero"></path>
</svg>