<svg xmlns="http://www.w3.org/2000/svg" width="86.889" height="86.889" viewBox="0 0 86.889 86.889" fill="none">
  <path d="M 41.552 2.737 C 42.467 1.414 44.422 1.414 45.338 2.737 L 49.273 8.427 C 49.966 9.43 51.321 9.718 52.363 9.084 L 58.272 5.487 C 59.647 4.65 61.433 5.445 61.731 7.026 L 63.012 13.825 C 63.238 15.024 64.358 15.838 65.567 15.682 L 72.429 14.799 C 74.025 14.594 75.334 16.047 74.963 17.613 L 73.367 24.345 C 73.086 25.531 73.779 26.731 74.947 27.081 L 81.575 29.065 C 83.116 29.526 83.72 31.386 82.745 32.666 L 78.549 38.167 C 77.81 39.136 77.954 40.514 78.879 41.308 L 84.127 45.817 C 85.347 46.865 85.143 48.81 83.731 49.582 L 77.661 52.901 C 76.591 53.486 76.163 54.804 76.685 55.906 L 79.645 62.159 C 80.333 63.613 79.355 65.307 77.752 65.438 L 70.856 66.001 C 69.641 66.1 68.714 67.129 68.742 68.348 L 68.903 75.265 C 68.941 76.873 67.359 78.023 65.84 77.49 L 59.312 75.2 C 58.161 74.796 56.896 75.36 56.426 76.485 L 53.76 82.869 C 53.14 84.353 51.227 84.76 50.057 83.656 L 45.024 78.908 C 44.137 78.072 42.752 78.072 41.865 78.908 L 36.833 83.656 C 35.662 84.76 33.749 84.353 33.129 82.869 L 30.463 76.485 C 29.993 75.36 28.728 74.796 27.577 75.2 L 21.049 77.49 C 19.531 78.023 17.948 76.873 17.986 75.265 L 18.147 68.348 C 18.175 67.129 17.248 66.1 16.033 66.001 L 9.137 65.438 C 7.534 65.307 6.556 63.613 7.244 62.159 L 10.205 55.906 C 10.726 54.804 10.298 53.486 9.228 52.901 L 3.158 49.582 C 1.746 48.81 1.542 46.865 2.762 45.817 L 8.01 41.308 C 8.935 40.514 9.08 39.136 8.34 38.167 L 4.145 32.666 C 3.169 31.386 3.773 29.526 5.314 29.065 L 11.942 27.081 C 13.11 26.731 13.803 25.531 13.522 24.345 L 11.926 17.613 C 11.555 16.047 12.864 14.594 14.46 14.799 L 21.322 15.682 C 22.531 15.838 23.652 15.024 23.877 13.825 L 25.158 7.026 C 25.456 5.445 27.242 4.65 28.617 5.487 L 34.526 9.084 C 35.568 9.718 36.923 9.43 37.616 8.427 L 41.552 2.737 Z" fill="currentColor" fill-rule="nonzero"></path>
</svg>