<svg xmlns="http://www.w3.org/2000/svg" width="66.273" height="75.474" viewBox="0 0 66.273 75.474" fill="none">
  <path d="M 58.846 6.452 C 60.602 7.638 58.9 10.411 56.795 10.17 C 55.748 10.05 54.683 9.988 53.604 9.988 C 38.278 9.988 25.855 22.412 25.855 37.737 C 25.855 53.062 38.278 65.486 53.604 65.486 C 54.683 65.486 55.748 65.424 56.795 65.304 C 58.9 65.063 60.602 67.835 58.846 69.022 C 52.821 73.095 45.557 75.474 37.737 75.474 C 16.895 75.474 0 58.579 0 37.737 C 0 16.895 16.895 0 37.737 0 C 45.557 0 52.821 2.379 58.846 6.452 Z" fill="currentColor" fill-rule="evenodd"></path>
</svg>