<svg width="888" height="201" viewBox="0 0 888 201" fill="none" xmlns="http://www.w3.org/2000/svg">
<path d="M293.958 196.77L370.283 4.05664L424.039 4.05664L500.11 196.77H441.282L430.379 163.806L363.436 163.806L352.533 196.77H293.958ZM379.665 116.388H414.404L397.161 64.1527L379.665 116.388Z" fill="black"></path>
<path d="M328.896 57.3063L271.59 57.3063V196.77H218.34L218.34 57.3063L161.033 57.3063V4.05664L328.643 4.05664L328.896 57.3063Z" fill="black"></path>
<path d="M663.506 196.77V4.05664L716.502 4.05664V196.77H663.506Z" fill="black"></path>
<path fill-rule="evenodd" clip-rule="evenodd" d="M0 141.723C6.66807 178.675 35.4908 200.829 86.4682 200.829C132.364 200.829 161.525 181.051 161.525 142.001C161.525 100.773 135.241 91.2669 119.086 85.4238C118.151 85.0857 117.249 84.7598 116.389 84.4407C108.885 81.7425 103.119 79.6891 98.5877 78.0755L98.5854 78.0747C89.492 74.8365 85.373 73.3697 82.1575 72.0158C69.7326 66.6908 63.6469 62.8873 63.6469 55.5337C63.6469 46.1517 71.5076 42.8552 79.1146 42.8552C87.6546 42.8552 94.7564 46.2707 97.9986 57.3394H157.829C153.074 22.1203 126.589 0.00195312 80.8896 0.00195312C42.347 0.00195312 4.31153 16.2304 4.31153 57.5623C4.31153 85.2014 21.8078 100.416 43.6149 111.573C52.7434 116.391 63.9005 120.701 76.3254 125.265C91.286 130.337 104.218 136.169 104.218 144.03C104.218 152.144 98.1324 157.469 85.4539 157.469C72.0355 157.469 64.1646 152.268 59.5477 141.723H0Z" fill="black"></path>
<path fill-rule="evenodd" clip-rule="evenodd" d="M726.475 141.721C733.143 178.673 761.966 200.827 812.943 200.827C858.839 200.827 888 181.049 888 141.999C888 100.771 861.716 91.2649 845.561 85.4219C844.626 85.0837 843.725 84.7578 842.864 84.4388C835.359 81.7401 829.592 79.6865 825.061 78.0728L825.06 78.0726C815.967 74.8345 811.848 73.3677 808.633 72.0138C796.208 66.6889 790.122 62.8853 790.122 55.5318C790.122 46.1497 797.983 42.8533 805.59 42.8533C814.13 42.8533 821.232 46.2687 824.474 57.3374H884.304C879.549 22.1184 853.064 0 807.365 0C768.822 0 730.787 16.2285 730.787 57.5603C730.787 85.1995 748.283 100.414 770.09 111.571C779.218 116.389 790.376 120.699 802.8 125.263C817.761 130.335 830.693 136.167 830.693 144.028C830.693 152.142 824.607 157.467 811.929 157.467C798.511 157.467 790.64 152.266 786.023 141.721H726.475Z" fill="black"></path>
<path fill-rule="evenodd" clip-rule="evenodd" d="M577.056 200.827C526.079 200.827 497.256 178.673 490.588 141.721H550.136C554.752 152.266 562.623 157.467 576.042 157.467C588.72 157.467 594.806 152.142 594.806 144.028C594.806 136.167 581.874 130.335 566.913 125.263C554.488 120.699 543.331 116.389 534.203 111.571C512.396 100.414 494.899 85.1995 494.899 57.5603C494.899 16.2285 532.935 0 571.478 0C617.177 0 643.662 22.1184 648.417 57.3374H588.586C585.344 46.2687 578.242 42.8533 569.703 42.8533C562.095 42.8533 554.235 46.1497 554.235 55.5318C554.235 62.8853 560.32 66.6889 572.745 72.0138C575.961 73.3677 580.08 74.8345 589.173 78.0726L589.173 78.0728C593.705 79.6865 599.472 81.7401 606.977 84.4388C607.837 84.7578 608.738 85.0837 609.673 85.4219C625.829 91.2649 652.113 100.771 652.113 141.999C652.113 181.049 622.952 200.827 577.056 200.827Z" fill="black"></path>
</svg>